#!OML:ASF F:\VICON\USERDATA\INSTALL\rory3\rory3.ASF
:FULLY-SPECIFIED
:DEGREES
618
root 4.96846 16.5566 2.18213 6.32909 -13.0722 -6.96738
lowerback 20.4476 -0.873946 4.3568
upperback 4.29502 -0.15709 1.38929
thorax -6.76713 -0.162146 -0.940931
lowerneck -14.8016 -0.483558 -1.87929
upperneck 36.6793 0.325346 -1.69474
head 15.3383 -0.429119 -0.346154
rclavicle -1.50082e-014 0
rhumerus -37.6762 1.38888 -8.25549
rradius 27.6063
rwrist 11.7038
rhand -23.8397 -50.9314
rfingers 7.12502
rthumb 2.63213 -80.8949
lclavicle -1.50082e-014 0
lhumerus -34.7303 -0.966842 1.18835
lradius 23.6585
lwrist 10.1535
lhand -22.7946 -26.4824
lfingers 7.12502
lthumb 3.64142 3.46625
rfemur -103.556 0.89438 27.8685
rtibia 100.624
rfoot 48.7856 6.08275
rtoes -4.66991
lfemur -30.6221 2.55022 -23.3794
ltibia 49.6135
lfoot -21.9412 9.72315
ltoes 15.3612
619
root 4.96902 16.5562 2.18346 6.29686 -13.0454 -6.88801
lowerback 20.4607 -0.878088 4.30657
upperback 4.27968 -0.17352 1.3622
thorax -6.79161 -0.169811 -0.937211
lowerneck -14.5882 -0.448613 -1.82904
upperneck 36.5527 0.368771 -1.73704
head 15.226 -0.407392 -0.363091
rclavicle -3.18055e-015 3.53837e-014
rhumerus -37.6968 1.43718 -8.26148
rradius 27.6588
rwrist 11.7193
rhand -23.6716 -51.0701
rfingers 7.12502
rthumb 2.79447 -81.0316
lclavicle -3.18055e-015 3.53837e-014
lhumerus -34.6354 -1.14211 1.24276
lradius 23.6454
lwrist 10.4614
lhand -22.7446 -26.1296
lfingers 7.12502
lthumb 3.6897 3.8182
rfemur -103.566 0.820102 27.801
rtibia 100.667
rfoot 48.7754 6.03334
rtoes -4.27182
lfemur -30.575 2.5112 -23.4757
ltibia 49.5959
lfoot -21.9741 9.79365
ltoes 15.3224
620
root 4.96797 16.5551 2.18111 6.291 -13.0471 -6.86735
lowerback 20.501 -0.879448 4.256
upperback 4.26085 -0.182445 1.36683
thorax -6.83389 -0.174065 -0.900761
lowerneck -14.4441 -0.414272 -1.83579
upperneck 36.4634 0.416783 -1.73942
head 15.1488 -0.386923 -0.353175
rclavicle 1.98785e-016 -6.36111e-015
rhumerus -37.7179 1.50224 -8.27163
rradius 27.7047
rwrist 11.7537
rhand -23.4695 -51.1416
rfingers 7.12502
rthumb 2.98973 -81.1004
lclavicle 1.98785e-016 -6.36111e-015
lhumerus -34.5965 -1.13339 1.21482
lradius 23.5152
lwrist 10.1682
lhand -23.3621 -28.6763
lfingers 7.12502
lthumb 3.09342 1.28105
rfemur -103.572 0.829327 27.7946
rtibia 100.681
rfoot 48.658 6.3141
rtoes -4.58607
lfemur -30.5845 2.54933 -23.5
ltibia 49.589
lfoot -21.9341 9.81139
ltoes 14.818
621
root 4.96638 16.5554 2.17823 6.30851 -13.0856 -6.90683
lowerback 20.4454 -0.851172 4.27748
upperback 4.31551 -0.14644 1.37199
thorax -6.74327 -0.155125 -0.917472
lowerneck -14.5051 -0.407931 -1.79044
upperneck 36.4272 0.425738 -1.76897
head 15.1457 -0.380294 -0.371842
rclavicle 2.69353e-014 -1.70955e-014
rhumerus -37.7671 1.2213 -8.19107
rradius 27.642
rwrist 12.0917
rhand -23.8079 -51.1277
rfingers 7.12502
rthumb 2.6629 -81.0909
lclavicle 2.69353e-014 -1.70955e-014
lhumerus -34.572 -0.834405 1.1264
lradius 23.4605
lwrist 9.41946
lhand -24.5107 -33.3124
lfingers 7.12502
lthumb 1.9841 -3.34192
rfemur -103.561 0.904929 27.8345
rtibia 100.649
rfoot 48.6336 6.38351
rtoes -4.96056
lfemur -30.621 2.62139 -23.4495
ltibia 49.5943
lfoot -21.9132 9.74132
ltoes 14.9181
622
root 4.965 16.5572 2.1752 6.32137 -13.1102 -6.92756
lowerback 20.4318 -0.825912 4.26124
upperback 4.35018 -0.118871 1.37865
thorax -6.69707 -0.140484 -0.908485
lowerneck -14.5382 -0.413254 -1.76051
upperneck 36.3872 0.40553 -1.75833
head 15.1338 -0.38253 -0.375648
rclavicle 2.26615e-014 -3.53837e-014
rhumerus -37.7502 0.826591 -8.04287
rradius 27.526
rwrist 12.5106
rhand -24.0158 -51.3838
rfingers 7.12502
rthumb 2.46211 -81.3493
lclavicle 2.26615e-014 -3.53837e-014
lhumerus -34.4698 -0.629238 1.08905
lradius 23.3835
lwrist 9.04434
lhand -25.0154 -35.5449
lfingers 7.12502
lthumb 1.49665 -5.57042
rfemur -103.555 0.957473 27.8436
rtibia 100.602
rfoot 48.7189 6.13435
rtoes -4.79703
lfemur -30.6465 2.65168 -23.4097
ltibia 49.5939
lfoot -21.9441 9.659
ltoes 15.4722
623
root 4.96488 16.5605 2.17415 6.29546 -13.0475 -6.97556
lowerback 20.4373 -0.866354 4.30232
upperback 4.40232 -0.163818 1.39306
thorax -6.64527 -0.161471 -0.90503
lowerneck -14.6116 -0.409169 -1.7838
upperneck 36.4029 0.395489 -1.6901
head 15.1582 -0.381201 -0.345068
rclavicle 3.39922e-014 4.37326e-014
rhumerus -37.6624 0.565141 -7.99878
rradius 27.5598
rwrist 12.5533
rhand -23.713 -51.5549
rfingers 7.12502
rthumb 2.75451 -81.5168
lclavicle 3.39922e-014 4.37326e-014
lhumerus -34.4232 -0.495136 1.06883
lradius 23.3719
lwrist 9.01175
lhand -24.9717 -35.3385
lfingers 7.12502
lthumb 1.53885 -5.36434
rfemur -103.493 0.916282 27.8854
rtibia 100.579
rfoot 48.6768 6.13919
rtoes -5.04059
lfemur -30.6012 2.65151 -23.3484
ltibia 49.5858
lfoot -21.9373 9.60725
ltoes 15.5782
624
root 4.96521 16.5623 2.17159 6.28612 -12.9908 -6.99959
lowerback 20.4402 -0.900504 4.33789
upperback 4.43865 -0.201653 1.40081
thorax -6.60905 -0.179334 -0.907393
lowerneck -14.7016 -0.401264 -1.83311
upperneck 36.4549 0.39568 -1.60869
head 15.2043 -0.377794 -0.303012
rclavicle 2.5842e-015 -2.46493e-014
rhumerus -37.6209 0.473403 -8.02348
rradius 27.6492
rwrist 12.4718
rhand -23.7055 -51.3234
rfingers 7.12502
rthumb 2.76176 -81.2852
lclavicle 2.5842e-015 -2.46493e-014
lhumerus -34.4434 -0.432292 1.08657
lradius 23.4043
lwrist 8.99875
lhand -25.0258 -35.2623
lfingers 7.12502
lthumb 1.4866 -5.28771
rfemur -103.467 0.86843 27.9097
rtibia 100.555
rfoot 48.7118 6.39692
rtoes -5.16257
lfemur -30.5826 2.67889 -23.3327
ltibia 49.5842
lfoot -21.9204 9.58131
ltoes 15.4336
625
root 4.96545 16.5594 2.16741 6.30534 -12.9783 -6.87766
lowerback 20.4337 -0.90521 4.22359
upperback 4.42038 -0.233188 1.37236
thorax -6.62705 -0.193186 -0.86499
lowerneck -14.6741 -0.392324 -1.86884
upperneck 36.4559 0.401549 -1.56248
head 15.198 -0.374009 -0.276196
rclavicle -2.09718e-014 1.27222e-014
rhumerus -37.5538 0.461619 -8.05706
rradius 27.6526
rwrist 12.4239
rhand -23.8547 -51.3208
rfingers 7.12502
rthumb 2.61765 -81.2845
lclavicle -2.09718e-014 1.27222e-014
lhumerus -34.4567 -0.53166 1.14441
lradius 23.3842
lwrist 9.09603
lhand -25.0879 -35.3768
lfingers 7.12502
lthumb 1.42671 -5.40187
rfemur -103.575 0.829416 27.7892
rtibia 100.552
rfoot 48.8676 6.39651
rtoes -4.87034
lfemur -30.6433 2.69823 -23.4787
ltibia 49.5796
lfoot -21.9408 9.56622
ltoes 15.2968
626
root 4.96444 16.5571 2.1651 6.31643 -12.9534 -6.86702
lowerback 20.4586 -0.923094 4.21008
upperback 4.39581 -0.257345 1.36432
thorax -6.66803 -0.205501 -0.859383
lowerneck -14.6109 -0.36763 -1.80162
upperneck 36.4574 0.436574 -1.62194
head 15.1841 -0.358311 -0.307107
rclavicle -1.0138e-014 6.36111e-015
rhumerus -37.4576 0.384286 -8.06532
rradius 27.6003
rwrist 12.4085
rhand -23.6204 -51.415
rfingers 7.12502
rthumb 2.84398 -81.3757
lclavicle -1.0138e-014 6.36111e-015
lhumerus -34.435 -0.694176 1.19089
lradius 23.4191
lwrist 9.2826
lhand -25.1617 -35.1481
lfingers 7.12502
lthumb 1.35539 -5.17263
rfemur -103.6 0.818058 27.779
rtibia 100.563
rfoot 48.8933 6.19948
rtoes -4.68513
lfemur -30.6741 2.71976 -23.4861
ltibia 49.5683
lfoot -21.9542 9.49639
ltoes 15.2503
627
root 4.96441 16.5588 2.16822 6.273 -12.9756 -6.87887
lowerback 20.4817 -0.907715 4.24989
upperback 4.4164 -0.230171 1.34505
thorax -6.65665 -0.192842 -0.909767
lowerneck -14.6216 -0.37952 -1.80554
upperneck 36.5093 0.405797 -1.58067
head 15.2114 -0.366699 -0.294802
rclavicle 9.54166e-015 -1.74931e-014
rhumerus -37.5028 0.217492 -8.01091
rradius 27.6375
rwrist 12.5601
rhand -23.3242 -51.3373
rfingers 7.12502
rthumb 3.13001 -81.2941
lclavicle 9.54166e-015 -1.74931e-014
lhumerus -34.315 -0.763049 1.2344
lradius 23.4736
lwrist 9.38005
lhand -25.1351 -34.8102
lfingers 7.12502
lthumb 1.38106 -4.83497
rfemur -103.52 0.821048 27.7971
rtibia 100.591
rfoot 48.8258 6.33578
rtoes -4.69211
lfemur -30.5839 2.75197 -23.4749
ltibia 49.5322
lfoot -22.0074 9.43478
ltoes 15.4808
628
root 4.96494 16.5599 2.17347 6.24888 -13.0321 -6.69691
lowerback 20.3879 -0.86434 4.11632
upperback 4.44257 -0.212975 1.27739
thorax -6.57807 -0.181085 -0.912166
lowerneck -14.6137 -0.41072 -1.89148
upperneck 36.5309 0.340874 -1.45856
head 15.2194 -0.389112 -0.239226
rclavicle 1.98785e-015 2.3059e-014
rhumerus -37.5986 0.0698724 -7.9813
rradius 27.7631
rwrist 12.7538
rhand -23.4021 -51.411
rfingers 7.12502
rthumb 3.05475 -81.3689
lclavicle 1.98785e-015 2.3059e-014
lhumerus -34.2064 -0.718874 1.23484
lradius 23.5328
lwrist 9.48005
lhand -24.3774 -32.5752
lfingers 7.12502
lthumb 2.11291 -2.60591
rfemur -103.582 0.79131 27.6251
rtibia 100.65
rfoot 48.904 6.44933
rtoes -4.7447
lfemur -30.5225 2.76209 -23.6887
ltibia 49.469
lfoot -22.0724 9.45165
ltoes 14.9357
